<?xml version="1.0" encoding="utf-8"?>
<!-- Generator: Adobe Illustrator 15.1.0, SVG Export Plug-In . SVG Version: 6.00 Build 0)  -->
<!DOCTYPE svg PUBLIC "-//W3C//DTD SVG 1.1//EN" "http://www.w3.org/Graphics/SVG/1.1/DTD/svg11.dtd">
<svg version="1.1" id="VICE_IS_A_BUNCH_OF_OLD_DUDES"
	 xmlns="http://www.w3.org/2000/svg" xmlns:xlink="http://www.w3.org/1999/xlink" x="0px" y="0px" width="295.968px"
	 height="104.032px" viewBox="0 0 295.968 104.032" enable-background="new 0 0 295.968 104.032" xml:space="preserve">
<g>
	<g>
		<path fill-rule="evenodd" clip-rule="evenodd" fill="#FFFFFF" d="M233.292,42.245c-0.521,0.681-2.133,0.202-2.76,0.48
			C230.741,41.69,232.356,42.285,233.292,42.245z"/>
		<path fill-rule="evenodd" clip-rule="evenodd" fill="#FFFFFF" d="M158.652,60.604c8.376-0.255,16.224-1.47,23.76-1.44
			c-3.711,1.565-7.895,2.942-12.12,4.44c-4.127,1.463-8.505,3.347-12.84,3.24c-2.271-0.056-5.503-0.812-5.76-3
			c-0.355-3.024,2.132-5.563,3.84-7.681c2.133-2.643,4.084-4.345,6-6.12C160.841,53.354,159.459,57.012,158.652,60.604z"/>
		<path fill-rule="evenodd" clip-rule="evenodd" fill="#FFFFFF" d="M241.332,63.004c-1.968,1.235-4.857,1.572-7.68,1.921
			c-3.771,0.466-8.341,0.267-11.761,0C227.027,63.076,235.08,63.432,241.332,63.004z"/>
		<path fill-rule="evenodd" clip-rule="evenodd" d="M171.492,34.685c-2.055,6.985-4.783,14.336-6.96,21.601
			c3.479-0.078,7.481-0.611,11.52-0.961c3.536-0.306,8.273-0.164,10.681-1.8c2.032-1.382,2.075-4.414,3.6-6.48
			c0.915,3.337,3.697,7.845,1.681,11.04c-1.483,2.35-6.376,3.917-9.601,5.041c-3.829,1.334-6.693,2.445-10.56,3.959
			c-3.604,1.412-6.761,2.742-11.28,3.24c-5.397,0.596-12.769-0.486-13.44-5.76c-0.239-1.881,0.547-3.805,1.32-5.4
			c2.184-4.504,5.625-8.034,8.76-11.279c2.25-2.329,4.535-4.557,6.84-6.6C166.566,39.056,169.092,36.861,171.492,34.685z
			 M161.532,50.044c-1.916,1.775-3.867,3.477-6,6.12c-1.708,2.117-4.195,4.656-3.84,7.681c0.257,2.188,3.488,2.944,5.76,3
			c4.335,0.106,8.713-1.777,12.84-3.24c4.226-1.498,8.409-2.875,12.12-4.44c-7.536-0.029-15.384,1.186-23.76,1.44
			C159.459,57.012,160.841,53.354,161.532,50.044z"/>
		<path fill-rule="evenodd" clip-rule="evenodd" d="M52.572,49.444c1.337-0.766,1.981-2.318,2.64-3.6
			c0.682-1.329,1.518-2.781,1.92-4.32c0.628-2.396,0.284-4.621,0.12-6.72c-0.938-12.028,11.294-14.564,21.48-16.32
			c6.122-1.056,13.241-0.939,19.68-0.24c0.857,0.093,1.95,0.461,2.64,0.36c0.905-0.133,2.383-1.508,3.24-2.04
			c1.949-1.208,4.209-2.42,6.84-2.88c3.258-0.569,7.266-0.083,10.92,0.6c10.4,1.943,21.442,4.541,29.641,8.16
			c0.158,0.73-1.21,1.981-1.68,2.88c7.867-4.262,15.267-8.695,24.359-11.4c8.333-2.479,17.994-2.865,26.4-0.24
			c1.031,0.322,2.363,0.995,3.359,1.08c1.51,0.128,3.344-0.457,5.04-0.6c26.89-2.267,51.929,5.441,74.88,9.84
			c-4.968,7.992-11.902,14.017-21,17.88c0.937,0.923,2.004,1.263,2.76,2.16c2.066,2.452,1.901,6.645,0.48,9.48
			c-1.396,2.786-4.439,4.382-6,6.12c4.915-0.287,9.784,0.609,10.44,5.16c0.671,4.654-1.915,8.393-4.2,10.8
			c-7.226,7.612-19.824,10.108-32.04,12.601c-8.488,1.731-16.206,2.544-26.28,2.64c-7.824,0.074-20-0.642-23.399-5.64
			c-0.668-0.982-1.032-2.488-1.08-3.721c-9.462,4.054-20.081,8.33-33,8.641c-13.289,0.318-25.419-2.891-30-11.881
			c-2.176,3.949-4.06,7.922-7.8,10.08c-4.279,2.471-11.912,2.811-17.16,1.801c-5.819-1.121-10.291-3.57-10.801-9.601
			c-0.503-5.962,1.904-11.778,3.48-16.68c1.719-5.345,3.629-10.204,5.52-14.88c-2.558,1.503-4.328,4.372-6.239,6.84
			c-5.577,7.2-12.226,14.319-19.8,19.8c-4.887,3.535-10.363,7.088-16.681,9.72c-5.592,2.33-14.774,5.534-21.72,2.76
			c-2.412-0.963-4.781-3.559-3.6-6.84c0.641-1.782,2.848-2.821,3-4.8c0.115-1.509-1.379-3.503-2.28-5.04
			c-2.603-4.438-5.547-9.564-7.44-14.16c-2.625-6.371-5.835-15.371-3.479-23.04c2.16-7.034,8.25-11.249,14.28-14.64
			c4.76-2.677,9.447-4.649,15-6.6c3.119-1.096,8.556-2.93,10.92,0.24c3.333,4.471,0.448,13.151-0.721,17.88
			C53.673,37.307,52.53,43.131,52.572,49.444z M122.891,18.245c-3.836-0.753-8.124-1.459-11.76-0.6
			c-1.721,0.407-3.4,1.293-4.68,2.16c-1.021,0.692-2.767,2.56-4.08,2.76c-1.541,0.235-3.721-0.429-5.64-0.6
			c-10.108-0.901-19.424-0.237-27.36,2.64c-2.767,1.003-6.254,2.388-7.56,5.04c-1.535,3.118,0.371,7.438-0.12,11.4
			c-0.214,1.724-1.101,3.574-1.92,5.16c-1.738,3.365-3.401,5.534-5.641,8.52c-0.801,1.068-2.537,3.405-4.08,3.12
			c-1.068-0.198-1.559-2.081-1.68-4.2c-0.533-9.325,1.768-17.137,3.36-24.96c0.662-3.256,1.587-7.217,1.319-10.32
			c-0.195-2.275-1.219-3.201-3.119-3.12c-3.148,0.134-7.047,2.34-10.08,3.6c-3.299,1.37-6.066,2.835-8.761,4.56
			c-5.374,3.442-10.473,7.855-11.399,15.36c-0.985,7.973,2.225,15.041,5.04,20.64c1.398,2.781,2.72,5.588,4.92,8.4
			c1.693,2.166,5.136,5.584,4.68,8.76c-0.334,2.328-5.019,4.687-4.2,7.08c0.416,1.216,3.176,1.539,5.641,1.561
			c7.205,0.063,12.707-2.742,17.04-4.92c6.823-3.432,12.097-7.293,17.399-11.761c5.366-4.52,10.279-9.265,14.641-14.521
			c4.393-5.292,8.07-11.178,12.6-16.679c3.24,8.773-0.07,15.869-2.76,22.2c-1.415,3.331-2.56,6.397-3.721,10.08
			c-1.041,3.304-2.535,8.231-1.56,11.88c1.266,4.735,8.349,5.602,13.92,5.16c4.17-0.33,7.319-1.484,9.48-3.6
			c4.534-4.438,6.925-10.698,9.72-16.561c-0.589,8.146,2.73,12.939,8.04,15.84c5.283,2.887,12.181,4.2,19.92,4.2
			c15.531,0,27.253-5.874,36.84-11.16c-0.522,2.622-0.665,5.507,0.36,7.44c2.065,3.895,7.572,4.184,13.56,4.68
			c4.155,0.345,7.362,0.43,10.32,0.36c7.626-0.179,14.646-1.101,21.84-2.521c9.682-1.91,20.052-4.794,27.36-9.6
			c2.466-1.621,5.176-3.74,5.76-6.6c1.654-8.108-7.982-5.707-13.2-4.561c-3.99,0.877-7.976,2.088-11.399,2.88
			c-7.56,1.748-17.488,4.02-24.24,0.96c-1.031-0.467-2.525-1.227-2.521-2.76c0.004-1.031,1.086-2.202,1.8-2.76
			c2.481-1.938,6.592-2.44,10.92-2.76c10.74-0.794,26.607,0.947,33-5.761c1.565-1.642,3.144-5.674,1.32-8.64
			c-1.474-2.398-5.249-2.918-8.64-2.76c-9.308,0.435-17.159,4.3-25.32,4.08c-1.497-0.041-4.348-0.017-4.8-1.08
			c-0.561-1.319,0.834-3.28,1.561-4.2c0.926-1.173,2.126-2.487,3.239-2.88c1.846-0.651,4.726-0.271,7.32,0
			c7.827,0.814,15.733,1.52,22.2,0.36c8.234-1.477,13.803-5.862,18.359-10.8c0.625-0.676,1.471-1.347,1.68-2.28
			c-19.498-3.516-41.731-9.207-63.119-8.88c-3.77,0.057-7.162,0.582-9.96,2.04c-2.324,1.211-5.625,3.989-5.16,7.2
			c0.276,1.908,2.771,3.309,4.56,3.96c2.282,0.832,4.652,1.149,6.601,2.04c-5.039,0.916-11.129,2.367-16.2,3.24
			c0.989-2.512,2.299-4.955,3.48-8.04c0.795-2.079,2.659-6.579,2.039-9.24c-0.599-2.57-5.515-3.074-8.88-3.12
			c-3.164-0.043-7.328,0.47-10.2,1.08c-19.293,4.1-33.97,14.657-46.56,25.08c2.396-5.6,5.854-10.902,9-15.6
			c0.457-0.683,1.19-1.517,1.08-2.04C137.323,21.337,130.211,19.682,122.891,18.245z M230.532,42.725
			c0.627-0.278,2.238,0.201,2.76-0.48C232.356,42.285,230.741,41.69,230.532,42.725z M221.891,64.925
			c3.42,0.267,7.99,0.466,11.761,0c2.822-0.349,5.712-0.686,7.68-1.921C235.08,63.432,227.027,63.076,221.891,64.925z"/>
	</g>
</g>
</svg>
